<?xml version="1.0" encoding="UTF-8" standalone="no"?>
<!-- Created with Inkscape (http://www.inkscape.org/) -->

<svg
   xmlns:dc="http://purl.org/dc/elements/1.1/"
   xmlns:cc="http://creativecommons.org/ns#"
   xmlns:rdf="http://www.w3.org/1999/02/22-rdf-syntax-ns#"
   xmlns:svg="http://www.w3.org/2000/svg"
   xmlns="http://www.w3.org/2000/svg"
   xmlns:sodipodi="http://sodipodi.sourceforge.net/DTD/sodipodi-0.dtd"
   xmlns:inkscape="http://www.inkscape.org/namespaces/inkscape"
   sodipodi:docname="pyradio.svg"
   inkscape:version="0.48.4 r9939"
   version="1.1"
   width="24"
   height="24"
   id="svg4008">
  <sodipodi:namedview
     pagecolor="#ffffff"
     bordercolor="#666666"
     borderopacity="1"
     objecttolerance="10"
     gridtolerance="10"
     guidetolerance="10"
     inkscape:pageopacity="0"
     inkscape:pageshadow="2"
     inkscape:window-width="1366"
     inkscape:window-height="744"
     id="namedview7"
     showgrid="false"
     inkscape:zoom="9.8333333"
     inkscape:cx="12"
     inkscape:cy="12"
     inkscape:window-x="0"
     inkscape:window-y="24"
     inkscape:window-maximized="1"
     inkscape:current-layer="layer1" />
  <defs
     id="defs9" />
  <metadata
     id="metadata4013">
    <rdf:RDF>
      <cc:Work
         rdf:about="">
        <dc:format>image/svg+xml</dc:format>
        <dc:type
           rdf:resource="http://purl.org/dc/dcmitype/StillImage" />
        <dc:title></dc:title>
      </cc:Work>
    </rdf:RDF>
  </metadata>
  <g
     transform="translate(0,-8)"
     id="layer1">
    <path
       style="opacity:.3;color:#000000"
       d="m3 14h11v1h-11zm0 4h11v1h-11zm0 4h11v1h-11zm0 4h7v1h-7zm14.436-15c-0.53931-0.07759-0.45336 0.42193-0.44484 0.7731-0.0059 4.1692 0.01172 8.3407-0.0088 12.508-0.145 0.32452-0.55212 0.0099-0.80112 0.07215-1.7342-0.05405-3.6017 1.1946-3.847 3.0302-0.25326 1.3789 1.032 2.5932 2.3216 2.6149 1.9178 0.05257 3.5779-1.8787 3.3343-3.8146 0.0065-3.3283-0.01298-6.6593 0.0097-9.9859 0.13139-0.31618 0.4856-0.01847 0.65097 0.09458 1.5212 0.9203 2.8505 2.4463 2.9447 4.3279 0.0815 1.0885-0.14664 2.173-0.46032 3.2072 1.3984-2.3007 1.3227-5.5038-0.40514-7.6054-1.3305-1.3884-2.5797-3.0451-2.8335-5.0311-0.04896-0.18667-0.30655-0.18423-0.46044-0.19158z"
       id="rect4194-6" />
    <path
       d="m3 13h11v1h-11zm0 4h11v1h-11zm0 4h11v1h-11zm0 4h7v1h-7zm14.436-15c-0.53931-0.07759-0.45336 0.42193-0.44484 0.7731-0.0059 4.1692 0.01172 8.3407-0.0088 12.508-0.145 0.32452-0.55212 0.0099-0.80112 0.07215-1.7342-0.05405-3.6017 1.1946-3.847 3.0302-0.25326 1.3789 1.032 2.5932 2.3216 2.6149 1.9178 0.05257 3.5779-1.8787 3.3343-3.8146 0.0065-3.3283-0.01298-6.6593 0.0097-9.9859 0.13139-0.31618 0.4856-0.01847 0.65097 0.09458 1.5212 0.9203 2.8505 2.4463 2.9447 4.3279 0.0815 1.0885-0.14664 2.173-0.46032 3.2072 1.3984-2.3007 1.3227-5.5038-0.40514-7.6054-1.3305-1.3884-2.5797-3.0451-2.8335-5.0311-0.04896-0.18667-0.30655-0.18423-0.46044-0.19158z"
       style="color:#000000;fill:#5490f7"
       id="rect4194" />
  </g>
</svg>
